<?xml version="1.0" standalone="no"?>
<!DOCTYPE svg PUBLIC "-//W3C//DTD SVG 20010904//EN"
 "http://www.w3.org/TR/2001/REC-SVG-20010904/DTD/svg10.dtd">
<svg version="1.0" xmlns="http://www.w3.org/2000/svg"
 width="512.000000pt" height="512.000000pt" viewBox="0 0 512.000000 512.000000"
 preserveAspectRatio="xMidYMid meet">
<metadata>
Created by potrace 1.14, written by Peter Selinger 2001-2017
</metadata>
<g transform="translate(0.000000,512.000000) scale(0.100000,-0.100000)"
fill="#000000" stroke="none">
<path d="M2325 4834 c-172 -26 -354 -83 -502 -157 -254 -128 -513 -367 -661
-610 -186 -302 -276 -695 -228 -987 80 -481 526 -1226 1265 -2115 143 -172
308 -361 340 -389 l21 -19 51 56 c626 702 1155 1437 1390 1932 153 322 205
538 187 779 -51 709 -543 1301 -1226 1475 -196 50 -447 64 -637 35z m530 -184
c573 -122 1009 -559 1137 -1140 29 -132 32 -453 5 -580 -97 -457 -383 -826
-795 -1031 -114 -56 -210 -89 -347 -121 -85 -19 -129 -22 -295 -22 -265 -1
-405 29 -619 130 -440 209 -736 593 -827 1074 -27 143 -25 402 4 536 66 307
188 532 406 750 239 239 484 364 825 419 123 20 375 13 506 -15z"/>
<path d="M2445 4520 c-596 -55 -1078 -500 -1181 -1090 -26 -148 -15 -379 24
-530 100 -387 343 -687 696 -861 358 -176 780 -177 1140 -4 375 181 626 506
722 935 23 104 24 354 0 475 -116 612 -613 1047 -1231 1078 -49 3 -126 1 -170
-3z m381 -266 c18 -9 48 -30 65 -48 55 -56 63 -81 69 -216 l5 -125 70 -6 c96
-7 138 -34 168 -109 8 -19 47 -313 87 -656 l73 -621 -23 -47 c-14 -30 -38 -57
-63 -74 l-41 -27 -660 -3 c-500 -2 -670 0 -699 9 -49 16 -104 77 -113 126 -8
42 129 1243 147 1291 13 33 55 79 91 98 15 8 54 14 86 14 l60 0 4 123 c5 137
20 182 80 232 61 52 76 54 326 55 195 0 240 -3 268 -16z"/>
<path d="M2354 4106 c-17 -8 -34 -21 -38 -31 -3 -9 -6 -61 -6 -116 l0 -99 248
2 247 3 3 97 c3 90 1 98 -22 125 l-24 28 -189 2 c-143 2 -195 0 -219 -11z"/>
<path d="M2063 3698 c-6 -7 -29 -177 -52 -378 -24 -201 -45 -382 -48 -402 l-6
-38 596 0 c328 0 598 3 600 8 6 10 -87 795 -97 810 -4 6 -27 12 -52 12 l-44 0
0 -99 c0 -112 -11 -136 -67 -147 -26 -5 -37 -1 -57 19 -24 25 -26 32 -26 127
l0 100 -250 0 -250 0 0 -98 c0 -85 -3 -101 -20 -120 -29 -31 -65 -38 -96 -18
-35 24 -44 54 -44 152 l0 84 -39 0 c-21 0 -43 -6 -48 -12z"/>
<path d="M1940 2718 c-1 -7 -6 -59 -13 -115 -8 -58 -9 -109 -4 -118 7 -13 84
-15 630 -15 347 0 628 4 636 9 12 8 12 27 1 130 l-13 121 -618 0 c-488 0 -619
-3 -619 -12z"/>
<path d="M1970 913 c-670 -49 -1125 -138 -1318 -260 -68 -43 -68 -62 1 -108
173 -115 666 -215 1272 -257 237 -17 1034 -17 1270 0 660 46 1189 162 1304
286 l24 26 -24 26 c-110 118 -699 248 -1269 279 -58 4 -114 8 -126 10 -16 4
-46 -25 -144 -141 -149 -176 -313 -361 -346 -391 -16 -15 -38 -23 -59 -23 -31
0 -45 13 -162 143 -71 78 -182 204 -246 280 -65 75 -121 136 -125 135 -4 -1
-27 -3 -52 -5z"/>
</g>
</svg>
